<svg width="40" height="40" viewBox="0 0 40 40" fill="none" xmlns="http://www.w3.org/2000/svg">
<rect x="0.588104" y="0.386326" width="39.1093" height="39.1093" rx="19.5547" fill="#4F7DDD"/>
<rect x="15.353" y="7.8549" width="13.6883" height="13.6883" rx="6.84413" transform="rotate(45 15.353 7.8549)" fill="#FFA84E"/>
<rect x="25.3097" y="7.57453" width="13.6883" height="13.6883" rx="6.84413" transform="rotate(45 25.3097 7.57453)" fill="#E45657"/>
<g clip-path="url(#clip0_11625_19114)">
<path d="M20.1878 12.6897L29.8668 22.3687L21.602 30.6336C20.8209 31.4146 19.5546 31.4146 18.7735 30.6336L10.5087 22.3687L20.1878 12.6897Z" fill="#F9F3ED"/>
<path d="M20.1872 32.0489V12.6908L29.8663 22.3698C29.8663 22.3698 20.1872 34.5033 20.1872 32.0489Z" fill="#E45657"/>
</g>
<defs>
<clipPath id="clip0_11625_19114">
<path d="M20.1878 12.6897L29.8668 22.3687L21.602 30.6336C20.8209 31.4146 19.5546 31.4146 18.7735 30.6336L10.5087 22.3687L20.1878 12.6897Z" fill="white"/>
</clipPath>
</defs>
</svg>
